<svg width="500" height="500" viewBox="0 0 500 500" fill="none" xmlns="http://www.w3.org/2000/svg">
<rect width="500" height="500" fill="#F7A41D"/>
<path d="M80 44L62 66L53 52L80 44Z" fill="#FFC34D"/>
<path d="M80 44L67 55L62 66H56V117H65L54 122L46 139H34V44H80Z" fill="#FFC34D"/>
<path d="M65 117L46 139L38 128L65 117Z" fill="#FFC34D"/>
<path d="M90 44L96 58L71 66L90 44Z" fill="#FFC34D"/>
<path d="M90 44H145V66H71L90 54V44Z" fill="#FFC34D"/>
<path d="M150 117L131 139L124 126L150 117Z" fill="#FFC34D"/>
<path d="M150 117L134 126L131 139H76V117H150Z" fill="#FFC34D"/>
<path d="M184 22L86 139L37 162L135 44L184 22Z" fill="#FFC34D"/>
<path d="M175 44L174 62L156 67L175 44Z" fill="#FFC34D"/>
<path d="M187 44V139H140L154 127L159 117H165V67H156L166 58L175 44H187Z" fill="#FFC34D"/>
<path d="M159 117L164 132L140 139L159 117Z" fill="#FFC34D"/>
<path d="M33.851 471V390.5H67.546C73.4493 390.5 78.8543 391.497 83.761 393.49C88.6676 395.407 92.8843 398.167 96.411 401.77C100.014 405.373 102.774 409.628 104.691 414.535C106.608 419.442 107.566 424.847 107.566 430.75C107.566 436.653 106.608 442.097 104.691 447.08C102.774 451.987 100.014 456.242 96.411 459.845C92.8843 463.372 88.6676 466.132 83.761 468.125C78.8543 470.042 73.4493 471 67.546 471H33.851ZM53.401 457.66L50.756 453.75H66.971C70.191 453.75 73.066 453.213 75.596 452.14C78.126 450.99 80.2726 449.418 82.036 447.425C83.876 445.432 85.2943 443.017 86.291 440.18C87.2876 437.343 87.786 434.2 87.786 430.75C87.786 427.3 87.2876 424.157 86.291 421.32C85.2943 418.483 83.876 416.068 82.036 414.075C80.2726 412.082 78.126 410.548 75.596 409.475C73.066 408.325 70.191 407.75 66.971 407.75H50.411L53.401 404.07V457.66ZM151.319 472.15C145.186 472.15 139.589 471.115 134.529 469.045C129.469 466.975 125.061 464.062 121.304 460.305C117.547 456.548 114.634 452.14 112.564 447.08C110.494 442.02 109.459 436.462 109.459 430.405C109.459 424.348 110.494 418.79 112.564 413.73C114.634 408.67 117.547 404.262 121.304 400.505C125.061 396.748 129.469 393.835 134.529 391.765C139.589 389.695 145.147 388.66 151.204 388.66C157.261 388.66 162.819 389.695 167.879 391.765C172.939 393.835 177.347 396.748 181.104 400.505C184.861 404.262 187.736 408.67 189.729 413.73C191.799 418.79 192.834 424.348 192.834 430.405C192.834 436.385 191.799 441.943 189.729 447.08C187.736 452.14 184.861 456.548 181.104 460.305C177.347 464.062 172.939 466.975 167.879 469.045C162.819 471.115 157.299 472.15 151.319 472.15ZM151.204 453.75C154.347 453.75 157.222 453.175 159.829 452.025C162.512 450.875 164.812 449.265 166.729 447.195C168.722 445.048 170.256 442.557 171.329 439.72C172.402 436.883 172.939 433.778 172.939 430.405C172.939 427.032 172.402 423.927 171.329 421.09C170.256 418.253 168.722 415.8 166.729 413.73C164.812 411.583 162.512 409.935 159.829 408.785C157.222 407.635 154.347 407.06 151.204 407.06C148.061 407.06 145.147 407.635 142.464 408.785C139.857 409.935 137.557 411.583 135.564 413.73C133.571 415.8 132.037 418.253 130.964 421.09C129.967 423.927 129.469 427.032 129.469 430.405C129.469 433.778 129.967 436.922 130.964 439.835C132.037 442.672 133.571 445.125 135.564 447.195C137.557 449.265 139.857 450.875 142.464 452.025C145.147 453.175 148.061 453.75 151.204 453.75ZM213.908 471V407.75H189.988V390.5H257.953V407.75H233.458V471H213.908ZM263.734 471V390.5H319.854V407.175H282.709V454.325H321.004V471H263.734ZM272.934 437.995V422.125H314.679V437.995H272.934ZM329.805 471V390.5H347.285L389.49 448L385.695 447.425C385.312 444.895 385.005 442.48 384.775 440.18C384.545 437.88 384.315 435.618 384.085 433.395C383.932 431.172 383.779 428.91 383.625 426.61C383.549 424.31 383.472 421.818 383.395 419.135C383.395 416.452 383.395 413.538 383.395 410.395V390.5H402.37V471H384.66L340.615 411.66L346.48 412.465C346.864 416.145 347.17 419.288 347.4 421.895C347.707 424.425 347.937 426.687 348.09 428.68C348.32 430.673 348.474 432.475 348.55 434.085C348.627 435.695 348.665 437.305 348.665 438.915C348.742 440.448 348.78 442.173 348.78 444.09V471H329.805ZM437.059 471L404.859 390.5H425.214L440.739 431.555C441.659 433.932 442.426 436.002 443.039 437.765C443.729 439.528 444.304 441.177 444.764 442.71C445.301 444.243 445.761 445.815 446.144 447.425C446.604 448.958 447.102 450.722 447.639 452.715H444.074C444.687 450.108 445.301 447.808 445.914 445.815C446.527 443.745 447.217 441.637 447.984 439.49C448.751 437.267 449.709 434.622 450.859 431.555L465.809 390.5H485.819L453.389 471H437.059Z" fill="#121212"/>
</svg>
